<svg xmlns="http://www.w3.org/2000/svg" viewBox="0 0 49.408 49.408">
  <path d="M33.968,0H15.44A15.442,15.442,0,0,0,0,15.44V33.968a15.442,15.442,0,0,0,15.44,15.44H33.968a15.442,15.442,0,0,0,15.44-15.44V15.44A15.442,15.442,0,0,0,33.968,0ZM44.776,33.968A10.82,10.82,0,0,1,33.968,44.776H15.44A10.82,10.82,0,0,1,4.632,33.968V15.44A10.82,10.82,0,0,1,15.44,4.632H33.968A10.82,10.82,0,0,1,44.776,15.44Z"/>
  <path d="M140.352,128A12.352,12.352,0,1,0,152.7,140.352,12.353,12.353,0,0,0,140.352,128Zm0,20.072a7.72,7.72,0,1,1,7.72-7.72A7.731,7.731,0,0,1,140.352,148.072Z" transform="translate(-115.648 -115.648)"/>
  <g transform="translate(36.337 9.78)">
    <circle cx="1.646" cy="1.646" r="1.646"/>
  </g>
</svg>
