<svg xmlns="http://www.w3.org/2000/svg" viewBox="0 0 42.122 42.122">
  <path d="M35.7,36.4v0h.011V20.953c0-7.557-1.627-13.379-10.462-13.379a9.172,9.172,0,0,0-8.261,4.54h-.123V8.28H8.489V36.4h8.723V22.476c0-3.666.7-7.212,5.235-7.212,4.474,0,4.54,4.184,4.54,7.447V36.4Z" transform="translate(6.41 5.719)" fill="currentColor"/>
  <path d="M.4,7.977H9.129V36.1H.4Z" transform="translate(0.299 6.023)" fill="currentColor"/>
  <path d="M5.058,0a5.082,5.082,0,1,0,5.058,5.058A5.06,5.06,0,0,0,5.058,0Z" transform="translate(0 0)" fill="currentColor"/>
</svg>
